<?xml version="1.0" encoding="utf-8"?>
<!-- Generator: Adobe Illustrator 25.0.0, SVG Export Plug-In . SVG Version: 6.00 Build 0)  -->
<svg version="1.1" id="Camada_13" xmlns="http://www.w3.org/2000/svg" xmlns:xlink="http://www.w3.org/1999/xlink" x="0px" y="0px"
	 viewBox="0 0 500 500" style="enable-background:new 0 0 500 500;" xml:space="preserve">
<style type="text/css">
	.st0{fill:#46A302;}
	.st1{fill:#58CC02;}
	.st2{enable-background:new    ;}
	.st3{clip-path:url(#SVGID_2_);}
</style>
<g>
	<ellipse class="st03" cx="250" cy="250.1" rx="225" ry="204.6"/>
	<ellipse class="st13" cx="250" cy="232.8" rx="225" ry="187.5"/>
	<g>
		<g class="st2">
			<defs>
				<polygon id="SVGID_1_3" class="st23" points="126.9,294.4 156.7,135.3 387.6,140.6 357.8,299.7 				"/>
			</defs>
			<clipPath id="SVGID_2_3">
				<use xlink:href="#SVGID_1_3"  style="overflow:visible;"/>
			</clipPath>
			<g class="st33">
				<path class="st03" d="M269.5,137.9c-5.3-0.1-9.7,0.8-13.1,3c-7.7,5-7,7.3-14.1,27.5l-56-1.3c-19.6-0.4-37.7,11.3-40.5,26.2
					l-7,37.4c-2.8,14.9,10.8,27.3,30.4,27.8l54.2,1.2c-1.1,20.8-2.4,33.6,5.8,36.3c1.8,0.6,3.9,0.9,6.4,0.9
					c34.7,0.8,131.6-47.5,137.5-78.9C378.6,188.7,305.7,138.7,269.5,137.9"/>
			</g>
		</g>
	</g>
</g>
</svg>
