<?xml version="1.0" encoding="utf-8"?>
<!-- Generator: Adobe Illustrator 25.0.0, SVG Export Plug-In . SVG Version: 6.00 Build 0)  -->
<svg version="1.1" id="Icon1" xmlns="http://www.w3.org/2000/svg" xmlns:xlink="http://www.w3.org/1999/xlink" x="0px" y="0px"
	 viewBox="0 0 1000 1000" style="enable-background:new 0 0 1000 1000;" xml:space="preserve">
<style type="text/css">
	.st09{fill:none;stroke:#FFFFFF;stroke-width:60;stroke-linecap:round;stroke-miterlimit:10;}
	.st19{fill:none;stroke:#FFFFFF;stroke-width:46.7378;stroke-linecap:round;stroke-linejoin:round;stroke-miterlimit:10;}
</style>
<g id="Pc">
	<path class="st09" d="M835.8,778.7c-192.8,32.5-536,27.7-732.2-10.7c-57-221.7-58.6-440.4,0-655.8c24.1-4.6,48.4-8.7,72.9-12.3"/>
	<path class="st09" d="M170.9,100.9c175.7-29,538.1-29.8,725.4,11.3c66.5,226.5,65.6,445,0,655.8c-21.9,4.2-43.9,8.1-65.8,11.7"/>
	<line class="st09" x1="286.3" y1="919.6" x2="710.5" y2="919.6"/>
	<line class="st09" x1="500.2" y1="815.5" x2="500.2" y2="903.3"/>
	<path class="st19" d="M310.4,352.2c-103.1,19-57.9,351.9-0.9,363.7C370.1,703.2,418.1,370.3,310.4,352.2z"/>
	<path class="st19" d="M328.5,169.2c-35.3,0.9-107,87.1-76,144.7c27.4,54,93.8,46.1,119.4-2.7C396.4,261.2,309.5,232.2,328.5,169.2z"
		/>
	<path class="st19" d="M421.7,212c287.7-124.8,335.6,358.2,17.2,281.3"/>
	<path class="st19" d="M767.3,685.1H533c-20,0-36.2-16.2-36.2-36.2V412.8c0-20,16.2-36.2,36.2-36.2h234.3c20,0,36.2,16.2,36.2,36.2
		v236.1C803.5,668.9,787.3,685.1,767.3,685.1z"/>
</g>
</svg>
