<?xml version="1.0" encoding="utf-8"?>
<!-- Generator: Adobe Illustrator 25.0.0, SVG Export Plug-In . SVG Version: 6.00 Build 0)  -->
<svg version="1.1" id="Camada_1" xmlns="http://www.w3.org/2000/svg" xmlns:xlink="http://www.w3.org/1999/xlink" x="0px" y="0px"
	 viewBox="0 0 109.5 123.9" style="enable-background:new 0 0 109.5 123.9;" xml:space="preserve">
<style type="text/css">
	.st04{fill:#303032;}
	.st14{fill:#3A3A3A;}
	.st24{fill:#EAEAEA;}
</style>
<g>
	<polygon class="st04" points="107,4.6 97.6,110.1 55.3,121.8 13.1,110.1 3.7,4.6 	"/>
	<polygon class="st14" points="55.4,112.9 89.6,103.4 97.6,13.3 55.4,13.3 	"/>
	<path class="st24" d="M37,39.1l1.2,13.2h47.2c-0.3,3.4-3.2,36.1-3.5,39.7l-26.5,7.4l0,0h0l-26.5-7.4L27,71.8h13l0.9,10.3L55.3,86h0
		l14.4-3.9l1.5-16.8H26.4c-0.1-1.6-3.5-38.7-3.5-39.1h64.8c-0.3,3.6-0.8,9.3-1.2,12.9H37z"/>
</g>
</svg>
