<svg xmlns="http://www.w3.org/2000/svg" viewBox="0 0 108.04 117.65"><defs><style>.cls-1{fill:#303032;}</style></defs><g id="Camada_2" data-name="Camada 2"><g id="Camada_1-2" data-name="Camada 1"><path class="cls-1" d="M54,117.65a10.06,10.06,0,0,1-4.7-1.19l-14.87-8.54c-2.24-1.19-1.12-1.62-.45-1.84a27.41,27.41,0,0,0,6.71-2.92,1.09,1.09,0,0,1,1.12.11l11.41,6.6a1.5,1.5,0,0,0,1.34,0l44.63-25a1.23,1.23,0,0,0,.67-1.19V33.88a1.21,1.21,0,0,0-.67-1.18L54.58,7.84a1.44,1.44,0,0,0-1.34,0L8.61,32.7a1.32,1.32,0,0,0-.67,1.18V83.71a1.35,1.35,0,0,0,.67,1.19L20.8,91.71c6.6,3.24,10.74-.54,10.74-4.33V38.21a1.34,1.34,0,0,1,1.34-1.3h5.71a1.34,1.34,0,0,1,1.34,1.3V87.38c0,8.54-4.81,13.52-13.2,13.52-2.57,0-4.58,0-10.29-2.71L4.7,91.71A9.07,9.07,0,0,1,0,83.82V34A9.07,9.07,0,0,1,4.7,26.1l44.62-25a10.32,10.32,0,0,1,9.4,0l44.63,25A9.08,9.08,0,0,1,108,34V83.82a9.08,9.08,0,0,1-4.69,7.89l-44.63,25A11.91,11.91,0,0,1,54,117.65ZM67.78,83.39c-19.57,0-23.6-8.65-23.6-16a1.34,1.34,0,0,1,1.34-1.3h5.82a1.14,1.14,0,0,1,1.23,1.08c.89,5.73,3.47,8.54,15.32,8.54,9.4,0,13.42-2,13.42-6.92,0-2.81-1.12-4.86-15.77-6.26-12.19-1.19-19.79-3.79-19.79-13.19,0-8.75,7.6-13.94,20.35-13.94,14.32,0,21.36,4.75,22.26,15.13a1.66,1.66,0,0,1-.34,1,1.37,1.37,0,0,1-.89.43H81.31a1.3,1.3,0,0,1-1.23-1c-1.34-5.94-4.81-7.89-14-7.89-10.29,0-11.52,3.46-11.52,6,0,3.14,1.46,4.11,15.32,5.84s20.25,4.22,20.25,13.51C90,78,82,83.39,67.78,83.39Z"/></g></g></svg>