<?xml version="1.0" encoding="utf-8"?>
<!-- Generator: Adobe Illustrator 25.0.0, SVG Export Plug-In . SVG Version: 6.00 Build 0)  -->
<svg version="1.1" id="Camada_1" xmlns="http://www.w3.org/2000/svg" xmlns:xlink="http://www.w3.org/1999/xlink" x="0px" y="0px"
	 viewBox="0 0 675.2 555" style="enable-background:new 0 0 675.2 555;" xml:space="preserve">
<style type="text/css">
	.st0{fill:#717070;}
	.st1{fill:#FFFFFF;}
	.st2{fill:#D7D7D7;}
</style>
<g>
	<polygon class="st0" points="157.4,380.2 157.4,554.8 88.4,554.8 88.4,288.8 92.8,288.8 	"/>
	<path class="st0" d="M368.7,364.4l66.9,78.8h-66.9L260.1,316.3c55.9-26,104.7-119.3,108.6-187.5c0.3-5.6,0.3-11.3,0-16.9h66.9
		c0,58.7-23.7,123.8-66.9,170.6c-12,13.1-25.6,24.6-40.4,34.2L368.7,364.4z"/>
	<polygon class="st0" points="521.5,288.3 521.5,399.9 435.7,399.3 435.7,288.3 	"/>
	<rect x="521.5" y="399.9" class="st0" width="85" height="43.4"/>
	<rect x="0" y="288.7" class="st1" width="88.4" height="266"/>
	<path class="st1" d="M368.7,112L368.7,112c0.3,5.7,0.3,11.3,0,16.9C364.8,197,316,290.3,260.1,316.3l108.6,126.9h237.8v-43.4h-85
		V288.3h153.6V555H368.7v0H281L157.4,380.2l-64.6-91.4c109.1-36.5,161.5-97.6,172.4-176.8H0V0h675.2v112H368.7z"/>
	<rect y="288.8" class="st1" width="88.4" height="266"/>
	<path class="st1" d="M260.1,316.3l108.6,126.9V555H281L157.4,380.2l-64.6-91.4c109.1-36.5,161.5-97.6,172.4-176.8H0V0h368.7v112
		c0.3,5.6,0.3,11.3,0,16.9C364.8,197,316,290.4,260.1,316.3z"/>
	<polygon class="st2" points="675.2,288.3 675.2,555 368.7,555 368.7,443.2 606.5,443.2 606.5,399.9 521.5,399.9 521.5,288.3 	"/>
	<rect x="368.7" class="st2" width="306.4" height="112"/>
</g>
</svg>
