<svg xmlns="http://www.w3.org/2000/svg" viewBox="0 0 88.98 88.97"><defs><style>.cls-1{fill:#313133;}</style></defs><g id="Camada_2" data-name="Camada 2"><g id="Camada_1-2" data-name="Camada 1"><path class="cls-1" d="M50.19.36A44.49,44.49,0,1,0,88.62,50.13,44.56,44.56,0,0,0,50.19.36ZM70.47,18.82a6.77,6.77,0,0,1-.22,9.34,5.59,5.59,0,0,1-1,.8h0l-4.49-4.49Zm-.31-1a.44.44,0,0,1,.62,0,.4.4,0,0,1,.13.31.41.41,0,0,1-.13.32h0l-.18-.18-.09-.09-6.36,6.27,6.32-6.32-.33-.29ZM37.13,42c16.23-16.23,19.15-16.39,22.18-13.9a3.15,3.15,0,0,0-2.23.93L40.62,45.51l0,0L37.11,42Zm5.29,5.25,0,0L42.13,47l0,0-.29-.28-.53-.54,16.46-16.5a.7.7,0,0,0,.18-.13,2.39,2.39,0,0,1,1.6-.54A2.74,2.74,0,0,1,60,29h0a2.5,2.5,0,0,1,.38.15l.06,0a1.67,1.67,0,0,1,.28.18l.05,0a2.57,2.57,0,0,1,.33.33,2.44,2.44,0,0,1,.54,1.36,2.23,2.23,0,0,1-.8,1.89L43.47,48.31l-.76-.76Zm.11,1.44L41.45,49l-1.9.41-1.11.24h-.09a.26.26,0,0,1-.18-.12.23.23,0,0,1,0-.14.19.19,0,0,1,.07-.13h0l.3-.3,2.1-2.1.85.84.26.27ZM32.08,47l4.36-4.36,3.25,3.25-7.34,1.6a.22.22,0,0,1-.31-.13A.27.27,0,0,1,32.08,47ZM18.6,69.48a.23.23,0,0,1-.18-.09.25.25,0,0,1,0-.4l3.52-3.51L26.48,70Zm9-4.67a.82.82,0,0,0-.44.94l.75,3.2a.44.44,0,0,1-.17.62.43.43,0,0,1-.45,0h0a.52.52,0,0,1-.18-.18l-4.58-4.53,0,0,14-13.93,1.93-.41,4.8-1,.22,0-.22,0,3.25,3.24A92.64,92.64,0,0,1,27.63,64.81ZM47.18,52.07a0,0,0,0,1,0,0c-.37-.37-1.25-1.22-3.15-3.13l0,0L61.44,33.68l.13-.14a3.9,3.9,0,0,0,.33-.38C61.41,38.16,54.4,45.2,47.18,52.07ZM65.53,30.12a6.62,6.62,0,0,1-4.12-1.36L61,28.41a6.76,6.76,0,0,1,4.5-11.77A6.6,6.6,0,0,1,69.8,18.2l-6,6a.43.43,0,0,0,0,.62l4.67,4.63h0A6.37,6.37,0,0,1,65.53,30.12Z"/><path class="cls-1" d="M70.65,22.56a.53.53,0,0,0-.67-.31.52.52,0,0,0-.31.66c0,.05,0,.09,0,.14a1.67,1.67,0,0,1-.17,1.69.53.53,0,0,0,0,.71.5.5,0,0,0,.71-.09,2.61,2.61,0,0,0,.36-2.8Z"/></g></g></svg>