<svg xmlns="http://www.w3.org/2000/svg" viewBox="0 0 87.75 87.75"><defs><style>.cls-1{fill:#303032;fill-rule:evenodd;}</style></defs><g id="Camada_2" data-name="Camada 2"><g id="Camada_1-2" data-name="Camada 1"><g id="Page-1"><g id="Dribbble-Light-Preview"><g id="icons"><path id="wordpress-_139_" data-name="wordpress-[#139]" class="cls-1" d="M82.37,22.82a33.46,33.46,0,0,1,.3,4.51c0,7.72-.72,8.15-16.74,54.47a43.88,43.88,0,0,0,16.44-59ZM44.65,47.71,31.48,86a43.9,43.9,0,0,0,27-.69,3.91,3.91,0,0,1-.32-.61Zm28.84-6.05a23,23,0,0,0-3.62-12.1c-2.22-3.62-4.3-6.68-4.3-10.29a7.6,7.6,0,0,1,7.37-7.79c.19,0,.37,0,.56,0A43.86,43.86,0,0,0,7.22,19.77a120.77,120.77,0,0,0,14.52-.5A1.81,1.81,0,0,1,22,22.88s-2.38.28-5,.43L33,70.83,42.57,42,35.74,23.3c-2.36-.14-4.6-.42-4.6-.42-2.37-.14-2.09-3.75.27-3.61a124.51,124.51,0,0,0,23.25,0,1.81,1.81,0,0,1,.28,3.61s-2.38.28-5,.42L65.78,70.47C72,49.55,73.49,46.05,73.49,41.66ZM0,43.87A43.87,43.87,0,0,0,24.73,83.36L3.8,26A43.57,43.57,0,0,0,0,43.87Z"/></g></g></g></g></g></svg>