<svg xmlns="http://www.w3.org/2000/svg" viewBox="0 0 102.64 83.51"><defs><style>.cls-1{fill:#303032;}</style></defs><g id="Camada_2" data-name="Camada 2"><g id="Camada_1-2" data-name="Camada 1"><g id="_2069a460dcf28295e231f3111e0426ac" data-name="2069a460dcf28295e231f3111e0426ac"><path class="cls-1" d="M102.34,46.5A30.71,30.71,0,0,0,98,34.56a33.32,33.32,0,0,0-7.63-8.51h0L58.18,1.33l-.08-.06A6.69,6.69,0,0,0,54,0a7.44,7.44,0,0,0-4.24,1.27,4.3,4.3,0,0,0-2,3.29A3.91,3.91,0,0,0,49.32,7.7c2.07,1.63,4.14,3.3,6.21,5s4.08,3.3,6.14,4.93l-39.42,0c-4.5,0-7.57,2.12-8.2,5.66a5.7,5.7,0,0,0,1.3,4.57A6.09,6.09,0,0,0,20.1,30h3l12.49,0h4L3.79,56.38l-.14.11A9,9,0,0,0,.06,62.38a5.8,5.8,0,0,0,1.13,4.43,6.15,6.15,0,0,0,5,2.25,9.43,9.43,0,0,0,5.89-2.19l19.31-15.8a26.65,26.65,0,0,0-.17,2.72,26.25,26.25,0,0,0,1.1,6,31.64,31.64,0,0,0,6.85,11.85,35.28,35.28,0,0,0,11.95,8.58,38.44,38.44,0,0,0,15.63,3.26h0a38.44,38.44,0,0,0,15.69-3.32,35.49,35.49,0,0,0,11.94-8.61,31.82,31.82,0,0,0,6.83-11.87,29.92,29.92,0,0,0,1.29-6.63A30.24,30.24,0,0,0,102.34,46.5ZM67.15,67.39c-12.08,0-21.87-8.77-21.87-19.58s9.79-19.57,21.87-19.57S89,37,89,47.81,79.23,67.39,67.15,67.39Zm12.62-21.3a10.91,10.91,0,0,1-3.37,8.44,13.5,13.5,0,0,1-18.53,0A10.93,10.93,0,0,1,54.5,46.1a11.14,11.14,0,0,1,4-7.86,13.51,13.51,0,0,1,17.25,0A11.14,11.14,0,0,1,79.77,46.09Z"/></g></g></g></svg>