<?xml version="1.0" encoding="utf-8"?>
<!-- Generator: Adobe Illustrator 25.0.0, SVG Export Plug-In . SVG Version: 6.00 Build 0)  -->
<svg version="1.1" id="Icon2" xmlns="http://www.w3.org/2000/svg" xmlns:xlink="http://www.w3.org/1999/xlink" x="0px" y="0px"
	 viewBox="0 0 1000 1000" style="enable-background:new 0 0 1000 1000;" xml:space="preserve">
<style type="text/css">
	.st08{fill:none;stroke:#FFFFFF;stroke-width:56.2581;stroke-linecap:round;stroke-linejoin:round;stroke-miterlimit:133.3333;}
	.st18{fill:none;stroke:#FFFFFF;stroke-width:52;stroke-linecap:round;stroke-linejoin:round;stroke-miterlimit:133.3333;}
</style>
<g id="Folder">
	<path class="st08" d="M355.5,457.4L242.9,570l112.5,112.5"/>
	<path class="st08" d="M636.7,457.4L749.3,570L636.7,682.5"/>
	<path class="st08" d="M532.1,405.5l-75.5,336.8"/>
	<path class="st18" d="M807.5,254.4c64.1,1.2,102,31.6,103.2,79.6v428.4c-0.8,65.5-27,104.9-85.6,105.3H350.9"/>
	<path class="st18" d="M807.5,254.4"/>
	<path class="st18" d="M686.5,254.4"/>
	<path class="st18" d="M368.7,867.7H170.6c-57.9-2.3-80.1-49.5-80.9-91.3V214.6c1.2-59.7,30.1-88.2,71.5-91.3l184.1-3.5
		c27.4,1.8,48.1,18.9,61,36.3l41.1,69.1c14.6,19.6,31.8,28.7,49.3,29.3h308.9"/>
</g>
</svg>
