<svg xmlns="http://www.w3.org/2000/svg" viewBox="0 0 100.22 100.22"><defs><style>.cls-1{fill:#303032;}</style></defs><g id="Camada_2" data-name="Camada 2"><g id="Camada_1-2" data-name="Camada 1"><path class="cls-1" d="M3,43,32,14l8.47,8.53a10,10,0,0,0,4.66,11.18V61.44a10,10,0,1,0,10,0V37.07L65.51,47.55a5.8,5.8,0,0,0-.35,2.51,10,10,0,1,0,10-10,5.78,5.78,0,0,0-2.51.35L59.79,27.49A10,10,0,0,0,54,15.76a10.53,10.53,0,0,0-6.42-.46L39.08,6.83l4-3.91a10,10,0,0,1,14.14,0L97.3,43a10,10,0,0,1,0,14.14L57.18,97.3A10,10,0,0,1,43,97.3L2.92,57.18A10,10,0,0,1,3,43Z"/></g></g></svg>