<?xml version="1.0" encoding="utf-8"?>
<!-- Generator: Adobe Illustrator 25.0.0, SVG Export Plug-In . SVG Version: 6.00 Build 0)  -->
<svg version="1.1" id="Camada_1" xmlns="http://www.w3.org/2000/svg" xmlns:xlink="http://www.w3.org/1999/xlink" x="0px" y="0px"
	 viewBox="0 0 410.2 95.9" style="enable-background:new 0 0 410.2 95.9;" xml:space="preserve">
<style type="text/css">
	.st0{fill:#46A302;}
	.st1{fill:#58CC02;}
</style>
<g>
	<path class="st0" d="M391.2,90.2H19c-7.6,0-13.9-6.2-13.9-13.9V28.8c0-6.1,5-11.1,11.1-11.1H394c6.1,0,11.1,5,11.1,11.1v47.6
		C405.1,84,398.9,90.2,391.2,90.2z"/>
	<path class="st1" d="M390.1,87.4h-370c-8.3,0-15-6.8-15-15V29.7c0-6.6,5.4-12,12-12h376c6.6,0,12,5.4,12,12v42.7
		C405.1,80.6,398.3,87.4,390.1,87.4z"/>
</g>
</svg>
