<svg xmlns="http://www.w3.org/2000/svg" xmlns:xlink="http://www.w3.org/1999/xlink" viewBox="0 0 129.48 115.31"><defs><style>.cls-1{fill:none;}.cls-2{clip-path:url(#clip-path);}.cls-3{fill:#313133;}</style><clipPath id="clip-path" transform="translate(0 -5.39)"><rect id="SVGID" class="cls-1" width="129.48" height="129.48"/></clipPath></defs><g id="Camada_2" data-name="Camada 2"><g id="Camada_1-2" data-name="Camada 1"><g class="cls-2"><path class="cls-3" d="M129.48,63.06c0-8.58-10.74-16.7-27.21-21.75,3.8-16.78,2.11-30.14-5.33-34.41A11.61,11.61,0,0,0,91,5.42v5.89A6.05,6.05,0,0,1,94,12c3.59,2.06,5.15,9.9,3.94,20-.29,2.48-.77,5.1-1.35,7.76a128.34,128.34,0,0,0-16.76-2.88,128.75,128.75,0,0,0-11-13.19c8.61-8,16.68-12.38,22.17-12.38V5.39c-7.26,0-16.76,5.18-26.36,14.15-9.61-8.92-19.11-14-26.37-14v5.89c5.46,0,13.57,4.35,22.17,12.29a125.54,125.54,0,0,0-10.9,13.17,123.16,123.16,0,0,0-16.78,2.91c-.61-2.64-1.06-5.2-1.38-7.66-1.24-10.08.29-17.92,3.86-20a5.81,5.81,0,0,1,3-.69V5.53a11.76,11.76,0,0,0-6,1.47c-7.42,4.28-9.08,17.61-5.26,34.34C10.69,46.41,0,54.51,0,63.06S10.74,79.77,27.21,84.81c-3.8,16.78-2.11,30.14,5.33,34.41a11.54,11.54,0,0,0,5.94,1.48c7.26,0,16.76-5.17,26.36-14.15,9.61,8.93,19.11,14,26.37,14a11.77,11.77,0,0,0,6-1.48c7.42-4.28,9.08-17.61,5.26-34.34C118.79,79.74,129.48,71.61,129.48,63.06ZM95.12,45.46c-1,3.4-2.19,6.91-3.57,10.42-1.08-2.11-2.21-4.22-3.45-6.33s-2.51-4.17-3.8-6.18C88,43.93,91.66,44.61,95.12,45.46ZM83,73.57c-2.06,3.56-4.17,6.94-6.36,10.08-3.93.34-7.92.52-11.93.52s-8-.18-11.88-.5c-2.19-3.14-4.33-6.49-6.38-10s-3.83-7-5.49-10.5c1.63-3.54,3.48-7.07,5.46-10.53s4.17-6.94,6.36-10.08c3.93-.34,7.92-.53,11.93-.53s8,.19,11.88.5q3.28,4.71,6.38,10c2,3.46,3.83,7,5.49,10.5C86.83,66.57,85,70.11,83,73.57Zm8.52-3.44c1.43,3.54,2.64,7.08,3.65,10.51-3.46.84-7.1,1.56-10.88,2.11,1.29-2,2.59-4.12,3.8-6.26S90.47,72.25,91.55,70.13ZM64.79,98.29a109,109,0,0,1-7.34-8.44c2.38.1,4.81.18,7.26.18s4.94,0,7.34-.18A102.5,102.5,0,0,1,64.79,98.29ZM45.16,82.75c-3.75-.55-7.37-1.24-10.82-2.09,1-3.4,2.19-6.91,3.56-10.42,1.08,2.11,2.22,4.22,3.46,6.33S43.86,80.74,45.16,82.75Zm19.5-54.92A110.9,110.9,0,0,1,72,36.27c-2.38-.1-4.81-.18-7.26-.18s-4.94,0-7.34.18A104.18,104.18,0,0,1,64.66,27.83ZM45.13,43.37c-1.29,2-2.59,4.12-3.8,6.26S39,53.85,37.9,56a110.25,110.25,0,0,1-3.64-10.5C37.71,44.64,41.36,43.93,45.13,43.37ZM21.25,76.42c-9.35-4-15.39-9.22-15.39-13.36s6-9.39,15.39-13.35c2.27-1,4.75-1.85,7.31-2.67a126.48,126.48,0,0,0,5.93,16.07,124.79,124.79,0,0,0-5.85,16C26,78.29,23.54,77.39,21.25,76.42Zm14.19,37.71c-3.59-2.06-5.14-9.9-3.93-20,.29-2.48.77-5.09,1.35-7.76a126.68,126.68,0,0,0,16.76,2.88,127.47,127.47,0,0,0,11,13.19c-8.61,8-16.68,12.38-22.17,12.38A6.26,6.26,0,0,1,35.44,114.13ZM98.05,94c1.24,10.08-.29,17.92-3.86,20a5.81,5.81,0,0,1-3,.69c-5.47,0-13.57-4.35-22.17-12.3a125.54,125.54,0,0,0,10.9-13.17,123.19,123.19,0,0,0,16.78-2.9A72.6,72.6,0,0,1,98.05,94Zm10.16-17.6c-2.27,1-4.75,1.84-7.31,2.66A128.14,128.14,0,0,0,95,63a124.9,124.9,0,0,0,5.86-16c2.61.82,5.09,1.72,7.41,2.7,9.35,4,15.39,9.21,15.39,13.35S117.55,72.46,108.21,76.42Z" transform="translate(0 -5.39)"/><path class="cls-3" d="M64.71,75.12A12.06,12.06,0,1,0,52.65,63.06,12.06,12.06,0,0,0,64.71,75.12Z" transform="translate(0 -5.39)"/></g></g></g></svg>