<?xml version="1.0" encoding="utf-8"?>
<!-- Generator: Adobe Illustrator 25.0.0, SVG Export Plug-In . SVG Version: 6.00 Build 0)  -->
<svg version="1.1" id="Rive" xmlns="http://www.w3.org/2000/svg" xmlns:xlink="http://www.w3.org/1999/xlink" x="0px" y="0px"
	 viewBox="0 0 109.5 123.9" style="enable-background:new 0 0 109.5 123.9;" xml:space="preserve">
<style type="text/css">
	.st50{fill:#303032;}
</style>
<path id="_x3C_RiveCaminho_x3E_" class="st50" d="M95.9,113.8c-4.1-0.9-5.5-4.5-7.5-7.5c-6.5-10.3-13-20.6-19.5-31
	c-0.8-1.3-1.8-1.7-3.2-1.7c-7.8,0-15.6,0.1-23.3,0c-4.7,0-7.5-4.2-5.9-8.5c0.9-2.4,3.2-3.8,6.2-3.8c8,0,16.1,0.1,24.1-0.1
	c4.7-0.1,9-1.5,12.8-4.3c9.3-6.9,8.6-21.5,0.8-28.6c-4.1-3.7-8.9-5.5-14.3-5.5c-17.5,0-35.1,0-52.6,0c-2.1,0-4.1-0.3-5.7-1.9
	c-3.2-3.1-2.2-8.3,1.9-10c0.5-0.2,1.1-0.5,1.6-0.7c18.6,0,37.2,0,55.8,0c1,0.2,2.1,0.4,3.1,0.5c7.4,0.8,14,3.6,19.4,8.7
	c7.3,6.8,10.1,15.3,9.7,25.1c-0.4,9.8-4.7,17.5-12.7,23.1c-1.6,1.1-3.3,2-4.9,3c0.2,0.4,0.3,0.7,0.4,1c4.9,7.8,9.8,15.6,14.7,23.4
	c2,3.2,4.1,6.4,5.9,9.7c1.6,2.9,0.6,6.4-2.1,8.1c-0.9,0.6-2.1,0.8-3.1,1.1C97,113.8,96.5,113.8,95.9,113.8z"/>
</svg>
