<svg xmlns="http://www.w3.org/2000/svg" viewBox="0 0 114.08 85.56"><defs><style>.cls-1{fill:#303032;}</style></defs><g id="Camada_2" data-name="Camada 2"><g id="Camada_1-2" data-name="Camada 1"><path class="cls-1" d="M98.2,49.18a23.45,23.45,0,0,0-10.34,2.4c-1-2.12-2.14-4-2.32-5.36a14.44,14.44,0,0,1-.19-4.51,38.72,38.72,0,0,1,1.35-4.85c0-.2-.25-1.18-2.55-1.19s-4.27.44-4.51,1a22.24,22.24,0,0,0-.94,3.4c-.41,2.09-4.6,9.54-7,13.42a13.78,13.78,0,0,1-1.58-3.92,14.12,14.12,0,0,1-.2-4.51,37,37,0,0,1,1.36-4.85c0-.19-.25-1.17-2.55-1.19s-4.28.45-4.51,1-.48,2-.94,3.41-6,13.77-7.5,17c-.75,1.64-1.39,3-1.86,3.85l-.16.3c.06-.09.09-.18.09-.14-.39.77-.62,1.19-.62,1.19v0c-.3.57-.64,1.09-.8,1.09a7.36,7.36,0,0,1,0-3.55c.84-4.31,2.82-11,2.8-11.24s.37-1.29-1.3-1.91a2.12,2.12,0,0,0-2.36.39c-.14,0-.24.36-.24.36s1.8-7.56-3.46-7.56c-3.28,0-7.84,3.6-10.09,6.86L30.2,54.38l-3.69,2-.25-.27C19.88,49.34,8.1,44.52,8.6,35.38c.18-3.33,1.34-12.08,22.65-22.71,17.47-8.69,31.43-6.3,33.84-1,3.45,7.57-7.47,21.67-25.61,23.7-6.91.77-10.55-1.91-11.45-2.9s-1.09-1.11-1.45-.91c-.59.32-.21,1.24,0,1.8.54,1.4,2.76,3.9,6.56,5.15,3.33,1.08,11.44,1.69,21.24-2.11,11-4.24,19.58-16,17.07-25.95-2.56-10-19.23-13.34-35-7.75C27.07,6,16.91,11.28,9.61,18.11.93,26.24-.46,33.31.11,36.27c2,10.5,16.5,17.34,22.29,22.41l-.8.44C18.69,60.56,7.66,66.34,4.9,72.43,1.78,79.35,5.42,84.3,7.8,85c7.45,2.07,15.08-1.66,19.18-7.77s3.6-14.1,1.71-17.73c0-.06-.05-.09-.07-.15L30.9,58c1.48-.88,2.92-1.68,4.19-2.37a27.45,27.45,0,0,0-1.5,7.59c-.32,3.92,1.3,9,3.4,11a3.77,3.77,0,0,0,2.75.89c2.46,0,3.56-2,4.79-4.46,1.52-3,2.85-6.4,2.85-6.4s-1.67,9.31,2.91,9.31c1.68,0,3.35-2.16,4.1-3.26h0a1.65,1.65,0,0,1,.12-.21c.18-.27.27-.43.27-.43v0c.68-1.16,2.16-3.82,4.39-8.2,2.88-5.67,5.64-12.74,5.64-12.74a36.1,36.1,0,0,0,1.11,4.59,43.82,43.82,0,0,0,2.38,5.35c-.67.93-1.08,1.46-1.08,1.46s0,0,0,0c-.54.71-1.15,1.48-1.77,2.23-2.28,2.71-5,5.81-5.35,6.7a1.83,1.83,0,0,0,.5,2.44,4.43,4.43,0,0,0,2.8.45,12.56,12.56,0,0,0,4.19-1,14.57,14.57,0,0,0,3.6-1.89A8,8,0,0,0,74.67,62a15,15,0,0,0-1.3-5c.19-.28.41-.58.6-.89a94.88,94.88,0,0,0,6.26-10.8,36.62,36.62,0,0,0,1.1,4.6,31.53,31.53,0,0,0,2,4.58,19.51,19.51,0,0,0-6.08,7.86C76,66.1,77,67.81,79,68.21a6.12,6.12,0,0,0,3-.63,14,14,0,0,0,3.84-2c2.23-1.64,4.39-3.93,4.24-7a13,13,0,0,0-1-4.17,21.77,21.77,0,0,1,11.07-1.29c9.92,1.16,11.86,7.36,11.49,9.95a6.57,6.57,0,0,1-3.16,4.45c-.69.43-.91.59-.85.91s.41.45,1,.34a7.74,7.74,0,0,0,5.4-6.9c.28-6.06-5.55-12.72-15.87-12.67ZM21.71,75c-3.28,3.58-7.88,4.93-9.86,3.79s-1.28-6.5,2.76-10.32a52.43,52.43,0,0,1,7.74-5.78c.48-.28,1.17-.71,2-1.23l.21-.12c.16-.11.34-.2.52-.3A14.23,14.23,0,0,1,21.71,75ZM45.65,58.68c-1.14,2.79-3.54,9.92-5,9.55-1.24-.32-2-5.76-.25-11.11A24.62,24.62,0,0,1,44.3,50c1.8-2,3.78-2.66,4.24-1.86.62,1.06-2.17,8.81-2.89,10.56Zm19.79,9.44c-.49.25-.93.41-1.15.29s.2-.43.2-.43S67,65.32,68,64.11c.57-.71,1.23-1.55,1.94-2.48,0,.09,0,.18,0,.29,0,3.19-3.09,5.35-4.48,6.2Zm15.25-3.47c-.35-.25-.3-1.09.89-3.69A14,14,0,0,1,85,56.59a6.63,6.63,0,0,1,.34,1.92A6.31,6.31,0,0,1,80.69,64.65Z"/></g></g></svg>